<svg width="180" height="136" viewBox="0 0 180 136" fill="none" xmlns="http://www.w3.org/2000/svg">
<g clip-path="url(#clip0_4_144)">
<path d="M16.0332 105.453H111.993V135.379L148.802 105.453H164.302V0H16.0332V105.453ZM139.496 44.2215C146.435 44.2215 152.06 48.4746 152.06 53.7201C152.06 58.9668 146.434 63.2187 139.496 63.2187C132.559 63.2187 126.933 58.9657 126.933 53.7201C126.934 48.474 132.558 44.2215 139.496 44.2215ZM106.611 44.2215C113.549 44.2215 119.173 48.4746 119.173 53.7201C119.173 58.9668 113.548 63.2187 106.611 63.2187C99.6718 63.2187 94.0467 58.9657 94.0467 53.7201C94.0467 48.474 99.6718 44.2215 106.611 44.2215ZM73.724 44.2215C80.6629 44.2215 86.2872 48.4746 86.2872 53.7201C86.2872 58.9668 80.6621 63.2187 73.724 63.2187C66.7848 63.2187 61.1612 58.9657 61.1612 53.7201C61.1612 48.474 66.7852 44.2215 73.724 44.2215ZM40.8374 44.2215C47.7766 44.2215 53.401 48.4746 53.401 53.7201C53.401 58.9668 47.7755 63.2187 40.8374 63.2187C33.9001 63.2187 28.2746 58.9657 28.2746 53.7201C28.2746 48.474 33.899 44.2215 40.8374 44.2215Z" fill="#086CC9"/>
</g>
<defs>
<clipPath id="clip0_4_144">
<rect width="179.052" height="135.379" fill="white" transform="translate(0.641663)"/>
</clipPath>
</defs>
</svg>
