<svg width="126" height="129" viewBox="0 0 126 129" fill="none" xmlns="http://www.w3.org/2000/svg">
<g clip-path="url(#clip0_4_125)">
<path d="M125.042 108.097L124.603 118.788C124.509 121.509 123.299 124.083 121.236 125.95C119.173 127.816 116.426 128.823 113.593 128.751L100.509 128.291C99.4529 128.237 98.4629 127.782 97.7561 127.027L96.7987 126.03L87.5839 125.686C86.7594 125.656 85.9493 125.47 85.2006 125.137C84.452 124.804 83.7797 124.331 83.2228 123.746C82.666 123.162 82.2359 122.476 81.9573 121.73C81.6787 120.984 81.5573 120.193 81.6002 119.401V114.65H76.9329C75.3032 114.551 73.7792 113.841 72.6896 112.672C71.6001 111.504 71.0323 109.971 71.1088 108.404V103.652H66.4416C64.8046 103.553 63.2743 102.838 62.1837 101.661C61.093 100.484 60.5301 98.9414 60.6175 97.368L60.9765 87.9033C60.1787 87.0219 58.7825 85.5658 57.3065 84.0714C55.2608 85.0413 52.9409 85.3416 50.7008 84.9265C48.4608 84.5114 46.4237 83.4036 44.9004 81.7723L44.7009 81.504L44.1823 80.4694C37.8877 80.7563 31.6071 79.6713 25.811 77.2956C20.0149 74.9199 14.8536 71.3151 10.7137 66.7513C3.44767 58.6861 -0.20951 48.1914 0.537519 37.5496C1.28455 26.9078 6.37537 16.9797 14.7028 9.92458C18.8278 6.44089 23.6295 3.77542 28.8313 2.08163C34.0331 0.387846 39.5324 -0.300793 45.0124 0.0553664C50.4925 0.411526 55.845 1.80545 60.7619 4.15687C65.6789 6.5083 70.063 9.77077 73.6619 13.7565C78.0582 18.5908 81.1854 24.3662 82.7816 30.5995C84.3778 36.8328 84.3968 43.3427 82.8368 49.5845C83.7167 51.1364 84.1777 52.8754 84.1777 54.6426C84.1777 56.4097 83.7167 58.1487 82.8368 59.7006L123.965 105.377C124.643 106.114 125.001 107.075 124.962 108.059L125.042 108.097ZM74.8985 62.9577C74.3249 62.3399 73.975 61.5601 73.9012 60.7353V59.739C73.8454 59.1594 73.9277 58.5752 74.142 58.0308C74.3563 57.4864 74.6968 56.996 75.1379 56.5968C75.664 56.0873 75.9593 55.3986 75.9593 54.6809C75.9593 53.9632 75.664 53.2745 75.1379 52.765C74.6872 52.2769 74.3736 51.6863 74.227 51.0493C74.0804 50.4122 74.1056 49.7498 74.3001 49.1247C75.8704 43.8999 76.0505 38.3802 74.8238 33.0712C73.5972 27.7623 71.0031 22.834 67.2793 18.7379C64.3762 15.5349 60.8426 12.9147 56.8817 11.0279C52.9208 9.14109 48.6107 8.02495 44.1993 7.74363C39.7878 7.46231 35.362 8.02136 31.1762 9.38864C26.9904 10.7559 23.1273 12.9044 19.8088 15.7107C13.0527 21.4107 8.92338 29.4503 8.32524 38.0688C7.72709 46.6872 10.7089 55.1822 16.6176 61.6932C19.5124 64.9384 23.0547 67.5937 27.0353 69.5023C31.016 71.4108 35.3543 72.5341 39.7943 72.8057C41.9435 73.004 44.1075 73.004 46.2567 72.8057C47.1158 72.6942 47.9893 72.8545 48.745 73.2624C49.5008 73.6703 50.0976 74.3036 50.4452 75.0665C50.4452 75.488 50.4452 76.6759 52.3999 77.0974C52.7211 77.1864 53.0603 77.198 53.3873 77.1312C53.7143 77.0643 54.0191 76.9211 54.2748 76.7142L54.8333 76.1777C55.2054 75.8069 55.6515 75.5119 56.145 75.3104C56.6385 75.1089 57.1692 75.0051 57.7054 75.0051C58.2416 75.0051 58.7724 75.1089 59.2658 75.3104C59.7593 75.5119 60.2055 75.8069 60.5776 76.1777C60.5776 76.1777 62.4924 78.0553 64.3273 80.0096C68.3165 84.148 69.1542 85.106 69.0744 86.9453L68.7154 95.7969L75.5767 96.0268C76.113 96.0438 76.6403 96.1645 77.127 96.3818C77.6136 96.599 78.0497 96.9084 78.4089 97.2914C78.774 97.6648 79.0574 98.1047 79.2424 98.5852C79.4274 99.0657 79.5102 99.5769 79.486 100.089L79.2068 106.986L86.068 107.293C86.6044 107.309 87.1317 107.43 87.6184 107.647C88.105 107.865 88.541 108.174 88.9003 108.557C89.2654 108.93 89.5488 109.37 89.7338 109.851C89.9188 110.331 90.0016 110.843 89.9774 111.354L89.6981 118.252L98.7534 118.597C99.8091 118.651 100.799 119.106 101.506 119.861L102.463 120.857L113.832 121.279C114.52 121.279 115.179 121.016 115.666 120.549C116.152 120.082 116.425 119.449 116.425 118.788L116.784 109.553L74.8985 62.9577ZM44.5414 42.9937C43.146 44.1702 41.5229 45.0709 39.7648 45.6441C38.0067 46.2174 36.1482 46.452 34.2956 46.3346C32.443 46.2171 30.6327 45.7499 28.9683 44.9596C27.3039 44.1694 25.818 43.0716 24.5958 41.7292C22.1619 39.0051 20.9366 35.4733 21.1827 31.8913C21.4288 28.3094 23.1268 24.9629 25.9122 22.5698C28.7348 20.2033 32.4185 19.0077 36.1569 19.2447C39.8952 19.4817 43.3835 21.132 45.8578 23.8343C48.2867 26.5631 49.5052 30.0979 49.2517 33.68C48.9981 37.262 47.2927 40.6058 44.5015 42.9937H44.5414ZM39.7544 28.8157C39.232 28.2336 38.5941 27.7572 37.8779 27.4145C37.1618 27.0717 36.3817 26.8695 35.5833 26.8195C34.7848 26.7696 33.984 26.873 33.2276 27.1236C32.4712 27.3742 31.7744 27.7671 31.1778 28.2793C29.9674 29.3176 29.2304 30.7714 29.1259 32.327C29.0215 33.8826 29.5578 35.4153 30.6193 36.5944C31.6315 37.7283 33.0609 38.4423 34.6085 38.587C35.4334 38.6644 36.2661 38.5786 37.0551 38.3347C37.8442 38.0908 38.5728 37.6942 39.1959 37.1692C40.4064 36.1309 41.1433 34.6771 41.2478 33.1215C41.3523 31.5659 40.8159 30.0332 39.7544 28.854V28.8157ZM108.247 113.117C107.85 113.458 107.385 113.719 106.881 113.885C106.377 114.051 105.843 114.118 105.311 114.082C104.779 114.047 104.26 113.909 103.785 113.677C103.31 113.446 102.887 113.125 102.543 112.734L69.1143 75.8712C68.4107 75.0937 68.0575 74.0796 68.1323 73.052C68.2071 72.0244 68.7039 71.0674 69.5132 70.3916C70.3226 69.7158 71.3782 69.3765 72.448 69.4483C73.5178 69.5202 74.5141 69.9973 75.2176 70.7748L108.646 107.637C109.002 108.019 109.274 108.466 109.446 108.95C109.619 109.435 109.689 109.947 109.651 110.458C109.614 110.969 109.471 111.467 109.23 111.924C108.989 112.381 108.655 112.786 108.247 113.117Z" fill="url(#paint0_linear_4_125)"/>
</g>
<defs>
<linearGradient id="paint0_linear_4_125" x1="0.2223" y1="54.0869" x2="124.962" y2="54.0869" gradientUnits="userSpaceOnUse">
<stop stop-color="#086CC9"/>
<stop offset="1" stop-color="#086CC9"/>
</linearGradient>
<clipPath id="clip0_4_125">
<rect width="124.74" height="128.866" fill="white" transform="translate(0.302082)"/>
</clipPath>
</defs>
</svg>
