<svg width="151" height="125" viewBox="0 0 151 125" fill="none" xmlns="http://www.w3.org/2000/svg">
<g clip-path="url(#clip0_4_122)">
<path d="M75.8229 3.3617V6.72341C89.0279 6.72341 101.936 9.98247 112.916 16.0885C123.895 22.1945 132.453 30.8731 137.506 41.027C142.56 51.1809 143.882 62.354 141.306 73.1333C138.73 83.9126 132.371 93.8141 123.033 101.586C113.696 109.357 101.8 114.649 88.8483 116.794C75.897 118.938 62.4727 117.837 50.2728 113.631C38.073 109.425 27.6456 102.303 20.3093 93.1648C12.973 84.0265 9.05731 73.2829 9.05731 62.2924C9.07868 47.56 16.1198 33.4362 28.6361 23.0188C41.1525 12.6015 58.1222 6.7412 75.8229 6.72341V0C61.0202 0 46.55 3.65338 34.242 10.4982C21.934 17.3429 12.3411 27.0717 6.67633 38.4541C1.01159 49.8365 -0.470571 62.3615 2.41729 74.445C5.30515 86.5285 12.4333 97.628 22.9004 106.34C33.3675 115.051 46.7034 120.984 61.2216 123.388C75.7399 125.791 90.7885 124.558 104.464 119.843C118.14 115.128 129.829 107.144 138.053 96.9001C146.277 86.6562 150.667 74.6126 150.667 62.2924C150.667 45.7714 142.781 29.9271 128.745 18.245C114.71 6.56293 95.6727 0 75.8229 0V3.3617Z" fill="url(#paint0_linear_4_122)"/>
<path d="M48.4785 48.6438C48.5036 50.0373 48.832 51.4155 49.4479 52.7115C50.0075 53.9744 50.8894 55.1213 52.0329 56.0732C53.1824 57.0519 54.5557 57.8292 56.0719 58.3591C57.9281 58.9466 59.9026 59.2319 61.8882 59.1996C63.874 59.2353 65.8493 58.9499 67.7044 58.3591C69.2185 57.826 70.5911 57.0491 71.7435 56.0732C72.8694 55.1161 73.7369 53.97 74.2881 52.7115C74.863 51.3976 75.1503 50.0085 75.1363 48.6102V45.8872C75.1508 44.4779 74.8636 43.0778 74.2881 41.7523C73.7336 40.4952 72.8665 39.3496 71.7435 38.3906C70.6013 37.3962 69.2267 36.6069 67.7044 36.071C65.8342 35.4834 63.8464 35.1981 61.8478 35.2306C59.8752 35.1967 57.9136 35.4821 56.0719 36.071C54.5496 36.6069 53.175 37.3962 52.0329 38.3906C50.8981 39.3483 50.0175 40.4936 49.4479 41.7523C48.8535 43.0745 48.5524 44.4755 48.5593 45.8872V48.6102L48.4785 48.6438ZM56.5566 45.9208C56.5544 45.3167 56.6634 44.7158 56.8797 44.1391C57.0766 43.5855 57.4064 43.0709 57.8491 42.6264C58.2916 42.1866 58.8426 41.8312 59.4647 41.5842C60.1888 41.3181 60.9759 41.1917 61.767 41.2144C62.5843 41.1907 63.3979 41.317 64.15 41.5842C64.7902 41.8222 65.3566 42.1786 65.806 42.6264C66.2401 43.0757 66.5689 43.5888 66.7754 44.1391C66.9882 44.7165 67.0971 45.3169 67.0985 45.9208V48.6438C67.1001 49.2479 66.9912 49.8487 66.7754 50.4255C66.5726 50.9771 66.2434 51.4908 65.806 51.9383C65.3701 52.3837 64.8174 52.7402 64.1904 52.9804C63.4571 53.244 62.6668 53.3801 61.868 53.3801C61.0692 53.3801 60.2788 53.244 59.5455 52.9804C58.9098 52.7351 58.3437 52.3806 57.8842 51.9403C57.4248 51.5 57.0825 50.9838 56.8797 50.4255C56.6608 49.8493 56.5518 49.2481 56.5566 48.6438V45.9208ZM78.004 77.6889C77.9984 79.0896 78.2996 80.4794 78.8926 81.7902C79.4665 83.0471 80.3466 84.1917 81.4776 85.1519C82.7159 86.143 84.1874 86.9099 85.7994 87.4042C87.6574 87.9862 89.6306 88.2713 91.6156 88.2447C93.6146 88.2805 95.6031 87.9952 97.4723 87.4042C98.9911 86.8783 100.365 86.1006 101.511 85.1183C102.633 84.1586 103.5 83.0133 104.056 81.7566C104.632 80.4429 104.919 79.0537 104.904 77.6553V74.8987C104.914 73.5007 104.627 72.1123 104.056 70.7974C103.509 69.5371 102.641 68.3902 101.511 67.4357C100.361 66.4577 98.9879 65.6805 97.4723 65.1498C95.6031 64.5589 93.6146 64.2735 91.6156 64.3093C89.6427 64.2711 87.6801 64.5566 85.8398 65.1498C84.3282 65.6867 82.9564 66.4631 81.8007 67.4357C80.6602 68.3896 79.7788 69.5359 79.2157 70.7974C78.6278 72.1094 78.3269 73.4984 78.3271 74.8987V77.6553L78.004 77.6889ZM86.0821 74.9323C86.0818 74.3283 86.1907 73.7277 86.4052 73.1506C86.6042 72.5977 86.9338 72.0834 87.3746 71.6379C87.8297 71.195 88.3947 70.8395 89.0306 70.5957C89.756 70.3329 90.5421 70.2066 91.3329 70.2259C92.2044 70.1778 93.0771 70.3046 93.8775 70.5957C94.5128 70.8404 95.0775 71.1958 95.5335 71.6379C95.9709 72.0853 96.3 72.599 96.5029 73.1506C96.7174 73.7277 96.8264 74.3283 96.826 74.9323V77.6889C96.8227 78.2884 96.7415 78.8857 96.5837 79.4706C96.4331 80.0192 96.1439 80.5349 95.7355 80.9834C95.3059 81.4342 94.7516 81.7918 94.1198 82.0255C93.3145 82.3027 92.4458 82.429 91.5752 82.3953C90.8108 82.4125 90.0515 82.2861 89.3537 82.0255C88.7106 81.7756 88.1338 81.4213 87.6573 80.9834C87.1841 80.5399 86.8142 80.0269 86.5668 79.4706C86.3039 78.9019 86.1671 78.2983 86.1629 77.6889V74.9323H86.0821ZM94.4834 43.3996L88.4652 40.7102L58.2126 81.0506L64.1904 83.74L94.443 43.3996H94.4834Z" fill="url(#paint1_linear_4_122)"/>
</g>
<defs>
<linearGradient id="paint0_linear_4_122" x1="0.97919" y1="67.6038" x2="150.667" y2="67.6038" gradientUnits="userSpaceOnUse">
<stop stop-color="#086CC9"/>
<stop offset="1" stop-color="#086CC9"/>
</linearGradient>
<linearGradient id="paint1_linear_4_122" x1="48.4785" y1="42041" x2="105.066" y2="42041" gradientUnits="userSpaceOnUse">
<stop stop-color="#086CC9"/>
<stop offset="1" stop-color="#086CC9"/>
</linearGradient>
<clipPath id="clip0_4_122">
<rect width="149.688" height="124.585" fill="white" transform="translate(0.979156)"/>
</clipPath>
</defs>
</svg>
