<svg width="151" height="129" viewBox="0 0 151 129" fill="none" xmlns="http://www.w3.org/2000/svg">
<g clip-path="url(#clip0_4_127)">
<path d="M145.821 55.3952L136.323 60.479C136.678 63.7985 136.678 67.1389 136.323 70.4584L145.077 75.5422C146.941 76.5789 148.319 78.1489 148.967 79.975C149.616 81.801 149.494 83.7656 148.622 85.5216L143.282 96.2165C142.553 97.6879 141.331 98.9392 139.772 99.811C138.213 100.683 136.388 101.136 134.529 101.112C133.791 101.116 133.056 101.04 132.34 100.886L121.442 98.6267C119.14 101.098 116.575 103.38 113.783 105.443L116.146 114.782C116.616 116.65 116.303 118.601 115.261 120.29C114.22 121.979 112.518 123.296 110.456 124.008L97.8072 128.377C96.6974 128.769 95.5056 128.962 94.3058 128.941C92.7031 128.949 91.1243 128.608 89.7162 127.95C88.308 127.291 87.1165 126.337 86.2524 125.176L80.475 116.74C76.6178 117.061 72.7336 117.061 68.8764 116.74L62.8801 124.799C62.031 125.947 60.8609 126.893 59.4769 127.551C58.0929 128.208 56.5392 128.557 54.9581 128.565C53.6945 128.571 52.4429 128.353 51.2815 127.925L38.8076 123.255C36.7675 122.5 35.1037 121.148 34.1104 119.439C33.1172 117.73 32.8586 115.773 33.3803 113.916L36.0064 104.614C33.0553 102.451 30.3445 100.055 27.9093 97.4593L17.0548 99.4928C16.3857 99.5568 15.7105 99.5568 15.0414 99.4928C13.1587 99.4961 11.318 99.0134 9.75752 98.1071C8.19699 97.2008 6.98832 95.9126 6.28777 94.409L1.21065 83.7141C0.452421 81.9473 0.41644 80.011 1.10863 78.2244C1.80082 76.4377 3.17987 74.9072 5.01849 73.8853L14.6475 68.9144C14.2762 65.5956 14.2762 62.2538 14.6475 58.935L5.4124 53.7382C3.54865 52.7016 2.1707 51.1315 1.52198 49.3055C0.873266 47.4794 0.995528 45.5148 1.86717 43.7588L7.2069 32.9886C7.9365 31.5172 9.15855 30.2659 10.7174 29.3941C12.2763 28.5223 14.1015 28.0694 15.9606 28.0931C16.6982 28.0887 17.4335 28.1647 18.149 28.319L28.9597 30.5785C31.578 27.9248 34.5119 25.5141 37.7134 23.3858L35.1311 14.1972C34.661 12.3289 34.9743 10.3778 36.0157 8.68916C37.0571 7.00057 38.7593 5.68345 40.8209 4.97099L53.47 0.602649C54.5766 0.196943 55.7686 -0.00816713 56.9714 0.000119355C58.574 -0.00776684 60.1529 0.333397 61.561 0.991843C62.9691 1.65029 64.1607 2.6046 65.0248 3.76593L70.9335 12.0131C74.777 11.7082 78.6449 11.7082 82.4883 12.0131L88.1782 4.29314C89.3808 2.65596 91.2228 1.44169 93.3731 0.868723C95.5233 0.295761 97.8406 0.401712 99.9081 1.16752L112.338 5.76181C114.375 6.50999 116.038 7.85484 117.031 9.55767C118.025 11.2605 118.285 13.2111 117.766 15.0634L115.096 24.4779C118.061 26.6425 120.773 29.0515 123.193 31.6706L133.872 29.6747C134.533 29.5471 135.208 29.4839 135.886 29.4864C137.775 29.4809 139.622 29.9671 141.184 30.8811C142.746 31.7951 143.951 33.0943 144.639 34.6079L149.454 45.4534C150.299 47.2293 150.379 49.2062 149.681 51.0286C148.983 52.8511 147.552 54.3994 145.646 55.3952H145.821ZM141.838 48.1272L136.805 37.244C136.732 37.0755 136.6 36.9307 136.428 36.8295C136.255 36.7282 136.051 36.6757 135.842 36.6791H135.579L122.449 39.1645C121.641 39.341 120.79 39.3023 120.009 39.0535C119.227 38.8046 118.552 38.3575 118.072 37.7712C115.201 34.3494 111.783 31.2939 107.918 28.6956C107.286 28.2499 106.812 27.661 106.549 26.9955C106.286 26.33 106.244 25.6144 106.43 24.9298L109.712 13.2934C109.771 13.0888 109.742 12.8726 109.629 12.6855C109.516 12.4983 109.328 12.3529 109.099 12.2767L96.5817 7.79534C96.3636 7.7198 96.1216 7.71234 95.8978 7.77424C95.6739 7.83615 95.4823 7.96352 95.3562 8.13427L88.1782 18.076C87.7141 18.6877 87.0532 19.17 86.276 19.4642C85.4989 19.7584 84.6391 19.8518 83.8014 19.733C78.9499 19.0715 74.0149 18.9955 69.139 19.507C68.3384 19.5773 67.5309 19.4562 66.805 19.1573C66.0792 18.8583 65.4632 18.393 65.0248 17.8124L57.8906 7.53174C57.7865 7.40495 57.6489 7.30126 57.4891 7.22924C57.3293 7.15722 57.1518 7.11892 56.9714 7.1175H56.5775L43.9285 11.5988C43.6966 11.6824 43.5072 11.8348 43.3948 12.0282C43.2824 12.2217 43.2543 12.4435 43.3157 12.6532L46.2044 23.9507C46.3701 24.6494 46.3017 25.3743 46.0073 26.041C45.7129 26.7077 45.2045 27.2887 44.5412 27.7165C40.4336 30.235 36.802 33.2835 33.7742 36.7544C33.2833 37.3272 32.603 37.7594 31.8222 37.9945C31.0414 38.2296 30.1964 38.2568 29.3974 38.0724L16.0481 35.3234H15.8292C15.633 35.3246 15.4414 35.3752 15.2781 35.4688C15.1148 35.5625 14.9869 35.6952 14.9101 35.8506L9.39531 46.5455C9.30459 46.7387 9.29424 46.953 9.36602 47.152C9.43781 47.351 9.58731 47.5225 9.78923 47.6376L21.3441 54.0395C22.047 54.4437 22.5988 55.0145 22.9328 55.6827C23.2668 56.351 23.3686 57.0882 23.2261 57.8053C22.5117 62.0006 22.5117 66.2631 23.2261 70.4584C23.3077 71.1472 23.1671 71.842 22.8196 72.4665C22.4721 73.091 21.9313 73.621 21.2565 73.9983L9.39531 79.9859C9.18217 80.1119 9.02082 80.2927 8.93434 80.5024C8.84787 80.712 8.8407 80.9399 8.91386 81.1533L13.9472 91.9235C14.0198 92.092 14.1515 92.2368 14.324 92.338C14.4965 92.4392 14.7013 92.4918 14.9101 92.4884H15.1727L28.6096 89.9653C29.4176 89.8186 30.2574 89.8716 31.0318 90.1182C31.8063 90.3647 32.4839 90.7948 32.9864 91.3586C35.9015 94.7742 39.3644 97.8171 43.272 100.397C43.9116 100.838 44.3943 101.425 44.6652 102.091C44.936 102.756 44.9841 103.474 44.8038 104.162L41.565 115.686C41.5117 115.886 41.539 116.095 41.6424 116.28C41.7458 116.465 41.9191 116.614 42.134 116.703L54.6079 121.297C54.8325 121.375 55.0815 121.384 55.3128 121.322C55.5441 121.26 55.7435 121.132 55.8772 120.958L63.3178 110.979C63.7707 110.406 64.3985 109.951 65.1321 109.666C65.8657 109.38 66.6767 109.274 67.4758 109.359C70.0823 109.709 72.7162 109.885 75.3541 109.886C77.6369 109.881 79.9171 109.756 82.1819 109.51H82.7072C83.4246 109.523 84.1272 109.688 84.753 109.99C85.3789 110.293 85.9088 110.722 86.2962 111.242L93.4742 121.372C93.5686 121.498 93.6981 121.602 93.8509 121.675C94.0038 121.747 94.1751 121.785 94.3495 121.786H94.6997L107.349 117.418C107.572 117.336 107.754 117.189 107.866 117.004C107.978 116.818 108.012 116.606 107.961 116.401L105.029 104.84C104.859 104.145 104.92 103.423 105.207 102.756C105.493 102.09 105.993 101.507 106.648 101.074C110.512 98.6383 113.959 95.7481 116.89 92.4884C117.387 91.9223 118.069 91.4976 118.85 91.2693C119.63 91.041 120.472 91.0196 121.267 91.208L134.748 93.9947H135.01C135.207 93.9935 135.398 93.9429 135.561 93.8493C135.725 93.7556 135.853 93.6229 135.929 93.4675L141.094 82.8479C141.185 82.6523 141.2 82.4367 141.136 82.2331C141.073 82.0296 140.936 81.849 140.744 81.7182L129.277 75.3163C128.605 74.8931 128.088 74.3141 127.786 73.6471C127.484 72.9802 127.409 72.2529 127.57 71.5505C128.237 67.3902 128.237 63.1706 127.57 59.0103C127.492 58.3312 127.63 57.6467 127.969 57.0298C128.308 56.4129 128.836 55.887 129.495 55.5081L141.357 49.2569C141.566 49.1474 141.725 48.9783 141.805 48.7789C141.885 48.5794 141.881 48.3622 141.794 48.1648L141.838 48.1272ZM96.6693 83.5258C93.7801 85.9621 90.3587 87.882 86.6026 89.1747C82.8466 90.4674 78.8301 91.1072 74.7851 91.0574H74.3037C66.3561 90.6212 58.9066 87.5765 53.4925 82.5516C48.0784 77.5267 45.1131 70.9053 45.2085 64.0538C45.304 57.2024 48.453 50.644 54.0055 45.7323C59.5581 40.8205 67.0903 37.9303 75.0477 37.6582H75.5292C81.646 37.747 87.5963 39.3871 92.6342 42.3732C97.6722 45.3592 101.574 49.5583 103.85 54.4441C106.126 59.3298 106.675 64.685 105.429 69.8382C104.183 74.9915 101.196 79.7136 96.8443 83.4128L96.6693 83.5258ZM75.2666 44.9639H75.0477C69.0289 44.9239 63.2382 46.9428 58.9495 50.5763C54.6607 54.2099 52.2252 59.1604 52.1788 64.339C52.1324 69.5175 54.4788 74.4998 58.7019 78.1899C62.925 81.8799 68.6788 83.9754 74.6976 84.0153H75.0477C81.0665 84.0553 86.8572 82.0364 91.146 78.4029C95.4347 74.7693 97.8702 69.8188 97.9166 64.6402C97.9631 59.4617 95.6167 54.4794 91.3936 50.7893C87.1705 47.0993 81.4166 45.0038 75.3979 44.9639H75.2666Z" fill="url(#paint0_linear_4_127)"/>
</g>
<defs>
<linearGradient id="paint0_linear_4_127" x1="0.641658" y1="67.4081" x2="150.329" y2="67.4081" gradientUnits="userSpaceOnUse">
<stop stop-color="#086CC9"/>
<stop offset="1" stop-color="#086CC9"/>
</linearGradient>
<clipPath id="clip0_4_127">
<rect width="149.688" height="128.866" fill="white" transform="translate(0.641663)"/>
</clipPath>
</defs>
</svg>
